<svg width="21" height="20" viewBox="0 0 21 20" fill="none" xmlns="http://www.w3.org/2000/svg">
<path d="M20.0745 10.0372C20.0745 4.49324 15.5813 0 10.0372 0C4.49324 0 0 4.49324 0 10.0372C0 14.7422 3.2425 18.6944 7.61419 19.7804V13.1033H5.54401V10.0372H7.61419V8.71594C7.61419 5.30092 9.15899 3.71692 12.5152 3.71692C13.1504 3.71692 14.2482 3.84238 14.6991 3.96785V6.74378C14.4638 6.72025 14.0521 6.70457 13.5385 6.70457C11.8918 6.70457 11.2566 7.32798 11.2566 8.94727V10.0372H14.5344L13.9698 13.1033H11.2527V20C16.2243 19.4001 20.0745 15.1696 20.0745 10.0372Z" fill="white"/>
</svg>
