<svg width="18" height="15" viewBox="0 0 18 15" fill="none" xmlns="http://www.w3.org/2000/svg">
<g clip-path="url(#clip0_3_92840)">
<rect width="18" height="15" fill="white" fill-opacity="0.01"/>
<path d="M13.2855 2.47433L17.6027 6.58594C17.8559 6.82701 18 7.15848 18 7.5C18 7.84152 17.8559 8.17299 17.6027 8.41406L13.2855 12.5257C13.0605 12.74 12.7582 12.8571 12.4418 12.8571C11.7844 12.8571 11.25 12.3482 11.25 11.7221V9.64286H6.75C6.12773 9.64286 5.625 9.16406 5.625 8.57143V6.42857C5.625 5.83594 6.12773 5.35714 6.75 5.35714H11.25V3.2779C11.25 2.65179 11.7844 2.14286 12.4418 2.14286C12.7582 2.14286 13.0605 2.26339 13.2855 2.47433ZM5.625 2.14286H3.375C2.75273 2.14286 2.25 2.62165 2.25 3.21429V11.7857C2.25 12.3783 2.75273 12.8571 3.375 12.8571H5.625C6.24727 12.8571 6.75 13.3359 6.75 13.9286C6.75 14.5212 6.24727 15 5.625 15H3.375C1.51172 15 0 13.5603 0 11.7857V3.21429C0 1.43973 1.51172 0 3.375 0H5.625C6.24727 0 6.75 0.478795 6.75 1.07143C6.75 1.66406 6.24727 2.14286 5.625 2.14286Z" fill="white"/>
</g>
<defs>
<clipPath id="clip0_3_92840">
<rect width="18" height="15" fill="white"/>
</clipPath>
</defs>
</svg>
