<svg width="59" height="63" viewBox="0 0 59 63" fill="none" xmlns="http://www.w3.org/2000/svg">
<path d="M6.09446 20.7827C6.47572 19.9556 7.09854 18.7148 8.08435 17.0071C10.1077 13.5028 11.2018 12.2916 11.2018 12.2916L5.34893 12.1702C5.34893 12.1702 4.84959 12.9679 3.90931 14.5966C2.96903 16.2253 2.52783 17.0565 2.52783 17.0565L4.78322 20.7824H6.09446V20.7827Z" fill="url(#paint0_linear_3_93008)"/>
<path d="M14.5947 3.91102C16.2236 2.97074 17.0546 2.52954 17.0546 2.52954L22.0624 5.56107C22.0624 5.56107 20.5093 6.06298 17.0049 8.08606C13.5006 10.1094 12.2894 11.2035 12.2894 11.2035L12.168 5.35064C12.168 5.35064 12.966 4.8513 14.5947 3.91102Z" fill="url(#paint1_linear_3_93008)"/>
<path d="M29.192 0C31.0728 0 32.0131 0.0334448 32.0131 0.0334448L34.8342 5.16292C34.8342 5.16292 33.2384 4.82102 29.1918 4.82102C25.1451 4.82102 23.5493 5.16292 23.5493 5.16292L26.3704 0.0334448C26.3704 0.0334448 27.3112 0 29.192 0Z" fill="url(#paint2_linear_3_93008)"/>
<path d="M43.789 3.91102C45.4177 4.8513 46.2155 5.35064 46.2155 5.35064L46.094 11.2035C46.094 11.2035 44.8831 10.1094 41.3785 8.08606C37.8741 6.06273 36.321 5.56107 36.321 5.56107L41.3291 2.52954C41.3291 2.52954 42.1603 2.97048 43.789 3.91102Z" fill="url(#paint3_linear_3_93008)"/>
<path d="M52.2887 20.7824H53.6002L55.8556 17.0568C55.8556 17.0568 55.4144 16.2256 54.4741 14.5969C53.5339 12.9679 53.0345 12.1704 53.0345 12.1704L47.1816 12.2918C47.1816 12.2918 48.2758 13.5028 50.2988 17.0074C51.2849 18.7145 51.9075 19.9553 52.2887 20.7824Z" fill="url(#paint4_linear_3_93008)"/>
<path d="M58.3853 29.1937C58.3853 27.3129 58.3518 26.3726 58.3518 26.3726L55.0759 24.5708L55.956 30.2436L58.3853 29.2954C58.385 29.2611 58.3853 29.2287 58.3853 29.1937Z" fill="url(#paint5_linear_3_93008)"/>
<path d="M0 29.1937C0 27.3129 0.0334448 26.3726 0.0334448 26.3726L3.30937 24.5708L2.42929 30.2436L0 29.2954C0.000257258 29.2611 0 29.2287 0 29.1937Z" fill="url(#paint6_linear_3_93008)"/>
<path d="M4.25561 28.0567C4.58567 27.706 4.61422 27.1524 4.29831 26.7889C3.70224 26.1031 3.6207 25.3202 3.57413 24.6133C3.51651 23.7404 3.82239 22.8989 4.43517 22.2444C5.24142 21.3834 6.27123 20.8895 7.73117 20.8895C8.07872 20.8895 8.42525 20.9188 8.76148 20.9764C8.87005 20.9949 8.97655 21.0181 9.081 21.0454C10.2508 18.2438 11.9795 15.4214 13.5527 13.9396C18.5445 9.23771 22.2591 9.50758 28.2902 9.50758H28.7309H29.1917H29.6524H30.0931C36.1242 9.50758 39.8388 9.23771 44.8306 13.9396C46.404 15.4214 48.1325 18.2438 49.3023 21.0454C49.4067 21.0181 49.5133 20.9952 49.6216 20.9767C49.9578 20.919 50.3043 20.8897 50.6519 20.8897C52.1116 20.8897 53.1414 21.3836 53.9479 22.2449C54.5607 22.8994 54.8665 23.7406 54.8089 24.6135C54.7624 25.32 54.6811 26.1023 54.0863 26.7876C53.7688 27.1532 53.8048 27.7065 54.1364 28.0592C54.7991 28.7641 55.405 29.4937 55.9555 30.2439C55.7019 15.6784 43.8173 3.94849 29.1911 3.94849C14.5639 3.94849 2.67861 15.6802 2.42676 30.2475C2.91786 29.5794 3.51985 28.8385 4.25561 28.0567Z" fill="url(#paint7_linear_3_93008)"/>
<path d="M55.9562 30.2436C55.4201 11.6531 36.3722 -0.863256 19.1431 6.15578C9.45757 10.0046 2.65567 19.7923 2.42773 30.2475C2.43031 26.7807 3.14059 23.3113 4.47937 20.0984C8.47356 10.3164 18.6247 3.59246 29.1903 3.69176C43.6984 3.58654 56.0285 15.7037 55.9562 30.2436Z" fill="#6FAFED"/>
<path d="M50.2569 22.8348C48.8592 23.0744 49.1975 24.6287 49.1975 24.6287L48.0684 25.1144C48.1455 25.3292 48.2014 25.553 48.2384 25.7686C48.2628 25.9111 48.2796 26.0539 48.2953 26.1967C49.791 26.1599 53.0839 25.8875 53.1947 24.2017C53.2647 23.141 51.6545 22.5953 50.2569 22.8348Z" fill="url(#paint8_linear_3_93008)"/>
<path d="M10.4169 25.1579L9.18672 24.6287C9.18672 24.6287 9.52501 23.0744 8.12759 22.8348C6.7299 22.5953 5.11973 23.141 5.18944 24.2017C5.3083 26.0053 9.06916 26.1913 10.374 26.2013C10.3518 25.8535 10.358 25.497 10.4169 25.1579Z" fill="url(#paint9_linear_3_93008)"/>
<path d="M43.6213 16.369C39.1465 12.3447 35.9416 12.4409 29.1927 12.4409C22.4438 12.4409 19.2391 12.3447 14.7641 16.369C12.0068 18.8487 9.3313 26.9531 9.3313 26.9531C9.3313 26.9531 19.6373 28.7737 28.9063 28.7737H28.9274C20.3389 28.7737 10.7894 27.0673 10.7894 27.0673C10.7894 27.0673 13.5647 19.7185 16.1196 17.3944C20.2658 13.6227 22.9395 13.9955 29.1927 13.9955C35.4461 13.9955 38.1195 13.6227 42.2658 17.3944C44.8206 19.7185 47.5959 27.0673 47.5959 27.0673C47.5959 27.0673 38.0465 28.7737 29.4579 28.7737H29.479C38.748 28.7737 49.054 26.9531 49.054 26.9531C49.054 26.9531 46.3786 18.8484 43.6213 16.369Z" fill="url(#paint10_linear_3_93008)"/>
<path opacity="0.4" d="M29.4378 27.8734C37.382 27.8734 46.215 26.3746 46.215 26.3746C46.215 26.3746 43.648 19.9205 41.2849 17.8794C37.4496 14.5669 34.9766 14.8942 29.1927 14.8942C23.4087 14.8942 20.9357 14.5667 17.1005 17.8794C14.7373 19.9205 12.1704 26.3746 12.1704 26.3746C12.1704 26.3746 21.0034 27.8734 28.9475 27.8734" fill="url(#paint11_linear_3_93008)"/>
<path d="M29.1924 35.8819C32.6415 35.8819 36.9616 35.2066 42.257 33.2327C45.9116 31.8702 48.3787 31.1658 51.4517 31.5065C53.1277 31.6922 54.8388 33.3446 55.7803 34.4114C55.7803 34.4114 54.2532 30.4916 48.9408 26.6494C48.9408 26.6494 42.0165 27.1938 29.1924 27.1938C16.3683 27.1938 9.44398 26.6494 9.44398 26.6494C4.13185 30.4916 2.60425 34.4114 2.60425 34.4114H2.60451C3.54607 33.3446 5.25684 31.6924 6.93314 31.5065C10.0063 31.1656 12.4735 31.8702 16.1278 33.2327C21.4232 35.2066 24.587 35.5035 29.1924 35.8819Z" fill="url(#paint12_linear_3_93008)"/>
<path d="M9.44409 26.6496L9.6625 26.867C9.6625 26.867 14.6505 27.0383 19.0797 29.171C23.5089 31.3037 23.1068 33.9218 29.2445 33.9218H29.1406C35.278 33.9218 34.8759 31.3037 39.3053 29.171C43.7346 27.0383 48.7225 26.867 48.7225 26.867L48.941 26.6496C48.941 26.6496 36.6587 25.8225 29.1928 25.8225C21.7266 25.8225 9.44409 26.6496 9.44409 26.6496Z" fill="url(#paint13_linear_3_93008)"/>
<path d="M55.7803 34.4116C54.61 33.1639 53.2345 31.8302 51.4815 31.5622C48.5431 31.2144 45.6664 32.0677 42.9377 33.097C38.5584 34.7882 33.9149 35.9878 29.1924 36.0235C24.4699 35.9886 19.8264 34.7882 15.4468 33.0975C12.7186 32.0682 9.84091 31.2149 6.90328 31.5627C5.14929 31.8307 3.77682 33.1639 2.60449 34.4118C3.75907 33.1325 5.11816 31.7649 6.89067 31.4611C8.64877 31.2339 10.4416 31.3952 12.1531 31.8377C13.2982 32.1204 14.4132 32.5014 15.5207 32.894C19.8959 34.5296 24.501 35.7292 29.1919 35.7411C33.883 35.7297 38.4879 34.5294 42.8634 32.8943C45.6132 31.8927 48.5395 31.0474 51.4933 31.4613C53.2677 31.7646 54.6237 33.132 55.7803 34.4116Z" fill="#FF96A1"/>
<path d="M13.4435 36.3791C13.3661 36.3577 12.7666 36.3392 12.6892 36.3184L12.9498 46.0865C13.0272 46.0656 13.3661 45.8084 13.4435 45.787C16.8519 44.8524 22.1985 43.5023 28.9232 43.5023C35.648 43.5023 40.9946 44.6137 44.4027 45.5483C44.5298 45.5833 45.3391 46.0654 45.4176 46.0865L44.5332 41.2024L45.157 36.3184C45.0796 36.3392 44.4802 36.5965 44.4027 36.6178C41.1891 37.4992 35.6791 38.9025 28.9232 38.9025C22.1674 38.9028 16.6572 37.2604 13.4435 36.3791Z" fill="url(#paint14_linear_3_93008)"/>
<path d="M37.2821 39.948C35.3179 40.2004 32.3973 40.383 28.923 40.383C25.4487 40.383 22.5281 40.2004 20.5639 39.948C20.1469 40.2889 19.9864 40.4203 19.5693 40.7612V41.6426C19.9828 41.9824 20.1464 42.1169 20.5598 42.4568C22.5808 42.1931 25.4418 42.0223 28.923 42.0223C32.4042 42.0223 35.2652 42.1931 37.2862 42.4568C37.6996 42.1169 37.8632 41.9824 38.2766 41.6426V40.7612C37.8596 40.4203 37.6988 40.2889 37.2821 39.948Z" fill="url(#paint15_linear_3_93008)"/>
<path d="M9.40995 34.4941C6.91351 34.4941 4.72733 35.7761 3.52002 37.6947H10.856L13.1636 41.136L10.856 44.5774H3.52002C4.72733 46.496 6.91326 47.7779 9.40995 47.7779C13.2125 47.7779 16.295 44.8043 16.295 41.136C16.295 37.4678 13.2125 34.4941 9.40995 34.4941Z" fill="url(#paint16_linear_3_93008)"/>
<path d="M48.9756 47.7782C51.472 47.7782 53.6582 46.4963 54.8655 44.5776H47.5295L45.2219 41.1363L47.5295 37.6949H54.8655C53.6582 35.7763 51.4723 34.4944 48.9756 34.4944C45.173 34.4944 42.0906 37.468 42.0906 41.1363C42.0906 44.8045 45.173 47.7782 48.9756 47.7782Z" fill="url(#paint17_linear_3_93008)"/>
<path d="M48.2603 62.1939V59.5947H49.1385C49.3416 59.5947 49.5082 59.6294 49.6385 59.6988C49.7688 59.7673 49.8653 59.8617 49.9279 59.9818C49.9905 60.102 50.0218 60.2386 50.0218 60.3917C50.0218 60.5449 49.9905 60.6807 49.9279 60.7991C49.8653 60.9176 49.7692 61.0106 49.6398 61.0783C49.5103 61.1452 49.3449 61.1786 49.1436 61.1786H48.4329V60.8943H49.1334C49.2722 60.8943 49.3839 60.874 49.4685 60.8334C49.5539 60.7928 49.6157 60.7352 49.6538 60.6608C49.6927 60.5855 49.7121 60.4958 49.7121 60.3917C49.7121 60.2877 49.6927 60.1967 49.6538 60.1189C49.6148 60.041 49.5526 59.981 49.4672 59.9387C49.3817 59.8955 49.2688 59.8739 49.1283 59.8739H48.575V62.1939H48.2603ZM49.4837 61.0263L50.1233 62.1939H49.7578L49.1283 61.0263H49.4837Z" fill="#C6C6C6"/>
<path d="M45.9516 62.1939H45.6216L46.576 59.5947H46.9009L47.8552 62.1939H47.5253L46.7486 60.0059H46.7283L45.9516 62.1939ZM46.0734 61.1786H47.4034V61.4578H46.0734V61.1786Z" fill="#C6C6C6"/>
<path d="M45.046 60.4071C45.0181 60.3216 44.9813 60.2451 44.9356 60.1774C44.8908 60.1089 44.837 60.0505 44.7744 60.0023C44.7127 59.954 44.6424 59.9172 44.5638 59.8918C44.4851 59.8665 44.3988 59.8538 44.3049 59.8538C44.1509 59.8538 44.0108 59.8935 43.8848 59.9731C43.7587 60.0526 43.6585 60.1698 43.584 60.3246C43.5095 60.4794 43.4723 60.6694 43.4723 60.8944C43.4723 61.1195 43.51 61.3095 43.5853 61.4643C43.6606 61.6191 43.7625 61.7363 43.8911 61.8158C44.0197 61.8954 44.1644 61.9351 44.3252 61.9351C44.4741 61.9351 44.6052 61.9034 44.7186 61.8399C44.8328 61.7756 44.9217 61.6851 44.9851 61.5684C45.0494 61.4507 45.0816 61.3124 45.0816 61.1533L45.178 61.1737H44.3962V60.8944H45.3862V61.1737C45.3862 61.3877 45.3405 61.5739 45.2491 61.7321C45.1586 61.8903 45.0333 62.013 44.8734 62.1001C44.7144 62.1864 44.5316 62.2296 44.3252 62.2296C44.095 62.2296 43.8928 62.1754 43.7185 62.0671C43.5451 61.9588 43.4097 61.8048 43.3124 61.6052C43.216 61.4055 43.1677 61.1686 43.1677 60.8944C43.1677 60.6888 43.1952 60.504 43.2502 60.3398C43.3061 60.1749 43.3847 60.0344 43.4863 59.9185C43.5878 59.8026 43.7079 59.7137 43.8467 59.652C43.9855 59.5902 44.1382 59.5593 44.3049 59.5593C44.4419 59.5593 44.5697 59.5801 44.6881 59.6215C44.8074 59.6621 44.9136 59.7201 45.0067 59.7954C45.1006 59.8698 45.1789 59.9591 45.2415 60.0632C45.3041 60.1664 45.3472 60.281 45.3709 60.4071H45.046Z" fill="#C6C6C6"/>
<path d="M42.3261 59.5947H42.6408V61.3157C42.6408 61.4933 42.5989 61.652 42.5152 61.7916C42.4323 61.9303 42.3151 62.0399 42.1636 62.1203C42.0122 62.1998 41.8345 62.2396 41.6306 62.2396C41.4267 62.2396 41.249 62.1998 41.0976 62.1203C40.9461 62.0399 40.8285 61.9303 40.7447 61.7916C40.6618 61.652 40.6204 61.4933 40.6204 61.3157V59.5947H40.9351V61.2903C40.9351 61.4172 40.963 61.5301 41.0189 61.6291C41.0747 61.7273 41.1542 61.8047 41.2575 61.8614C41.3615 61.9172 41.4859 61.9451 41.6306 61.9451C41.7753 61.9451 41.8996 61.9172 42.0037 61.8614C42.1078 61.8047 42.1873 61.7273 42.2423 61.6291C42.2981 61.5301 42.3261 61.4172 42.3261 61.2903V59.5947Z" fill="#C6C6C6"/>
<path d="M38.6101 62.1939V59.5947H38.9249V61.9147H40.1331V62.1939H38.6101Z" fill="#C6C6C6"/>
<path d="M37.0756 60.8944C37.0756 61.1685 37.0261 61.4054 36.9271 61.6051C36.8281 61.8048 36.6923 61.9588 36.5197 62.0671C36.3471 62.1754 36.15 62.2295 35.9283 62.2295C35.7066 62.2295 35.5095 62.1754 35.3369 62.0671C35.1643 61.9588 35.0285 61.8048 34.9295 61.6051C34.8305 61.4054 34.781 61.1685 34.781 60.8944C34.781 60.6202 34.8305 60.3833 34.9295 60.1837C35.0285 59.984 35.1643 59.83 35.3369 59.7217C35.5095 59.6134 35.7066 59.5593 35.9283 59.5593C36.15 59.5593 36.3471 59.6134 36.5197 59.7217C36.6923 59.83 36.8281 59.984 36.9271 60.1837C37.0261 60.3833 37.0756 60.6202 37.0756 60.8944ZM36.771 60.8944C36.771 60.6693 36.7333 60.4794 36.658 60.3245C36.5836 60.1697 36.4825 60.0525 36.3547 59.973C36.2278 59.8935 36.0857 59.8537 35.9283 59.8537C35.7709 59.8537 35.6284 59.8935 35.5006 59.973C35.3737 60.0525 35.2726 60.1697 35.1973 60.3245C35.1228 60.4794 35.0856 60.6693 35.0856 60.8944C35.0856 61.1194 35.1228 61.3094 35.1973 61.4642C35.2726 61.6191 35.3737 61.7362 35.5006 61.8158C35.6284 61.8953 35.7709 61.9351 35.9283 61.9351C36.0857 61.9351 36.2278 61.8953 36.3547 61.8158C36.4825 61.7362 36.5836 61.6191 36.658 61.4642C36.7333 61.3094 36.771 61.1194 36.771 60.8944ZM35.7912 59.3308L36.1009 58.7419H36.4512L36.0552 59.3308H35.7912Z" fill="#C6C6C6"/>
<path d="M34.025 60.2447C34.0098 60.116 33.9481 60.0162 33.8398 59.9451C33.7315 59.8741 33.5986 59.8385 33.4413 59.8385C33.3262 59.8385 33.2255 59.8571 33.1392 59.8944C33.0537 59.9316 32.9869 59.9828 32.9387 60.0479C32.8913 60.1131 32.8676 60.1871 32.8676 60.27C32.8676 60.3394 32.8841 60.3991 32.9171 60.449C32.9509 60.4981 32.9941 60.5391 33.0466 60.5721C33.099 60.6042 33.154 60.6309 33.2115 60.652C33.2691 60.6723 33.322 60.6888 33.3702 60.7015L33.6342 60.7726C33.7018 60.7904 33.7771 60.8149 33.8601 60.8462C33.9438 60.8775 34.0238 60.9203 34.0999 60.9744C34.1769 61.0277 34.2404 61.0962 34.2903 61.18C34.3402 61.2638 34.3652 61.3666 34.3652 61.4884C34.3652 61.6288 34.3284 61.7558 34.2548 61.8691C34.182 61.9825 34.0754 62.0726 33.9349 62.1395C33.7953 62.2063 33.6257 62.2397 33.426 62.2397C33.2399 62.2397 33.0787 62.2097 32.9425 62.1496C32.8071 62.0895 32.7005 62.0058 32.6227 61.8983C32.5457 61.7909 32.5021 61.6661 32.4919 61.5239H32.8168C32.8253 61.6221 32.8583 61.7033 32.9158 61.7676C32.9742 61.8311 33.0478 61.8784 33.1367 61.9097C33.2263 61.9402 33.3228 61.9554 33.426 61.9554C33.5462 61.9554 33.654 61.936 33.7496 61.8971C33.8453 61.8573 33.921 61.8023 33.9768 61.7321C34.0327 61.661 34.0606 61.5781 34.0606 61.4833C34.0606 61.397 34.0365 61.3268 33.9882 61.2726C33.94 61.2185 33.8766 61.1745 33.7979 61.1407C33.7192 61.1068 33.6342 61.0772 33.5428 61.0518L33.223 60.9604C33.0199 60.9021 32.8591 60.8187 32.7407 60.7104C32.6222 60.6021 32.563 60.4604 32.563 60.2853C32.563 60.1397 32.6024 60.0128 32.681 59.9045C32.7606 59.7954 32.8672 59.7108 33.0009 59.6507C33.1354 59.5898 33.2856 59.5593 33.4514 59.5593C33.6189 59.5593 33.7678 59.5894 33.8981 59.6494C34.0284 59.7087 34.1317 59.7899 34.2078 59.8931C34.2848 59.9963 34.3254 60.1135 34.3296 60.2447H34.025Z" fill="#C6C6C6"/>
<path d="M28.4189 59.5947H28.7946L29.6779 61.7522H29.7084L30.5917 59.5947H30.9673V62.1939H30.6729V60.2191H30.6475L29.8353 62.1939H29.551L28.7388 60.2191H28.7134V62.1939H28.4189V59.5947Z" fill="#C6C6C6"/>
<path d="M27.4757 59.5947H27.7905V61.3157C27.7905 61.4933 27.7486 61.652 27.6648 61.7916C27.5819 61.9303 27.4647 62.0399 27.3133 62.1203C27.1618 62.1998 26.9842 62.2396 26.7802 62.2396C26.5763 62.2396 26.3987 62.1998 26.2472 62.1203C26.0958 62.0399 25.9782 61.9303 25.8944 61.7916C25.8115 61.652 25.77 61.4933 25.77 61.3157V59.5947H26.0848V61.2903C26.0848 61.4172 26.1127 61.5301 26.1685 61.6291C26.2244 61.7273 26.3039 61.8047 26.4071 61.8614C26.5112 61.9172 26.6356 61.9451 26.7802 61.9451C26.9249 61.9451 27.0493 61.9172 27.1534 61.8614C27.2574 61.8047 27.337 61.7273 27.392 61.6291C27.4478 61.5301 27.4757 61.4172 27.4757 61.2903V59.5947Z" fill="#C6C6C6"/>
<path d="M21.5854 59.5947H21.9611L22.8444 61.7522H22.8749L23.7582 59.5947H24.1339V62.1939H23.8394V60.2191H23.814L23.0018 62.1939H22.7175L21.9053 60.2191H21.8799V62.1939H21.5854V59.5947Z" fill="#C6C6C6"/>
<path d="M19.4492 62.1939V59.5947H21.0179V59.8739H19.764V60.7522H20.9366V61.0314H19.764V61.9147H21.0382V62.1939H19.4492Z" fill="#C6C6C6"/>
<path d="M17.9147 60.8944C17.9147 61.1686 17.8652 61.4055 17.7662 61.6052C17.6672 61.8048 17.5314 61.9588 17.3588 62.0671C17.1862 62.1754 16.9891 62.2296 16.7674 62.2296C16.5457 62.2296 16.3486 62.1754 16.176 62.0671C16.0034 61.9588 15.8676 61.8048 15.7686 61.6052C15.6696 61.4055 15.6201 61.1686 15.6201 60.8944C15.6201 60.6203 15.6696 60.3834 15.7686 60.1837C15.8676 59.9841 16.0034 59.8301 16.176 59.7218C16.3486 59.6135 16.5457 59.5593 16.7674 59.5593C16.9891 59.5593 17.1862 59.6135 17.3588 59.7218C17.5314 59.8301 17.6672 59.9841 17.7662 60.1837C17.8652 60.3834 17.9147 60.6203 17.9147 60.8944ZM17.6101 60.8944C17.6101 60.6694 17.5725 60.4794 17.4972 60.3246C17.4227 60.1698 17.3216 60.0526 17.1938 59.9731C17.0669 59.8935 16.9248 59.8538 16.7674 59.8538C16.61 59.8538 16.4675 59.8935 16.3397 59.9731C16.2128 60.0526 16.1117 60.1698 16.0364 60.3246C15.9619 60.4794 15.9247 60.6694 15.9247 60.8944C15.9247 61.1195 15.9619 61.3095 16.0364 61.4643C16.1117 61.6191 16.2128 61.7363 16.3397 61.8158C16.4675 61.8954 16.61 61.9351 16.7674 61.9351C16.9248 61.9351 17.0669 61.8954 17.1938 61.8158C17.3216 61.7363 17.4227 61.6191 17.4972 61.4643C17.5725 61.3095 17.6101 61.1195 17.6101 60.8944Z" fill="#C6C6C6"/>
<path d="M13.9552 62.1939H13.1531V59.5947H13.9907C14.2428 59.5947 14.4586 59.6468 14.638 59.7508C14.8173 59.8541 14.9548 60.0025 15.0504 60.1963C15.146 60.3892 15.1938 60.6202 15.1938 60.8892C15.1938 61.16 15.1456 61.3931 15.0492 61.5885C14.9527 61.7831 14.8122 61.9329 14.6278 62.0378C14.4434 62.1419 14.2191 62.1939 13.9552 62.1939ZM13.4678 61.9147H13.9349C14.1498 61.9147 14.3279 61.8732 14.4692 61.7903C14.6105 61.7074 14.7158 61.5894 14.7852 61.4362C14.8546 61.2831 14.8892 61.1008 14.8892 60.8892C14.8892 60.6794 14.855 60.4988 14.7864 60.3473C14.7179 60.195 14.6155 60.0783 14.4793 59.997C14.3431 59.915 14.1735 59.8739 13.9704 59.8739H13.4678V61.9147Z" fill="#909090"/>
<path d="M12.2101 59.5947H12.5248V61.3157C12.5248 61.4933 12.483 61.652 12.3992 61.7916C12.3163 61.9303 12.1991 62.0399 12.0477 62.1203C11.8962 62.1998 11.7185 62.2396 11.5146 62.2396C11.3107 62.2396 11.133 62.1998 10.9816 62.1203C10.8301 62.0399 10.7125 61.9303 10.6288 61.7916C10.5459 61.652 10.5044 61.4933 10.5044 61.3157V59.5947H10.8191V61.2903C10.8191 61.4172 10.8471 61.5301 10.9029 61.6291C10.9587 61.7273 11.0383 61.8047 11.1415 61.8614C11.2456 61.9172 11.3699 61.9451 11.5146 61.9451C11.6593 61.9451 11.7837 61.9172 11.8877 61.8614C11.9918 61.8047 12.0713 61.7273 12.1263 61.6291C12.1822 61.5301 12.2101 61.4172 12.2101 61.2903V59.5947Z" fill="#C6C6C6"/>
<path d="M8.06934 59.8739V59.5947H10.0187V59.8739H9.2014V62.1939H8.88665V59.8739H8.06934Z" fill="#C6C6C6"/>
<path d="M48.9234 56.3921C48.4802 56.3921 48.0691 56.32 47.69 56.1758C47.3162 56.0317 46.9905 55.8288 46.7129 55.5672C46.4406 55.3055 46.227 54.9985 46.0722 54.6461C45.9227 54.2937 45.8479 53.9093 45.8479 53.4928C45.8479 53.0763 45.9227 52.6919 46.0722 52.3395C46.227 51.9871 46.4432 51.6801 46.7209 51.4184C46.9985 51.1568 47.3242 50.9539 47.698 50.8098C48.0718 50.6656 48.4776 50.5935 48.9154 50.5935C49.3586 50.5935 49.7643 50.6656 50.1328 50.8098C50.5065 50.9539 50.8296 51.1568 51.1019 51.4184C51.3795 51.6801 51.5958 51.9871 51.7506 52.3395C51.9054 52.6865 51.9829 53.071 51.9829 53.4928C51.9829 53.9093 51.9054 54.2964 51.7506 54.6541C51.5958 55.0065 51.3795 55.3135 51.1019 55.5752C50.8296 55.8315 50.5065 56.0317 50.1328 56.1758C49.7643 56.32 49.3612 56.3921 48.9234 56.3921ZM48.9154 55.2868C49.1663 55.2868 49.3959 55.2441 49.6042 55.1587C49.8177 55.0733 50.0046 54.9505 50.1648 54.7903C50.325 54.6301 50.4478 54.4405 50.5332 54.2216C50.624 54.0027 50.6694 53.7598 50.6694 53.4928C50.6694 53.2258 50.624 52.9829 50.5332 52.764C50.4478 52.5451 50.325 52.3555 50.1648 52.1953C50.01 52.0351 49.8257 51.9123 49.6122 51.8269C49.3986 51.7415 49.1663 51.6988 48.9154 51.6988C48.6644 51.6988 48.4322 51.7415 48.2186 51.8269C48.0104 51.9123 47.8261 52.0351 47.666 52.1953C47.5058 52.3555 47.3803 52.5451 47.2895 52.764C47.2041 52.9829 47.1614 53.2258 47.1614 53.4928C47.1614 53.7544 47.2041 53.9974 47.2895 54.2216C47.3803 54.4405 47.5031 54.6301 47.658 54.7903C47.8181 54.9505 48.005 55.0733 48.2186 55.1587C48.4322 55.2441 48.6644 55.2868 48.9154 55.2868Z" fill="white"/>
<path d="M42.4893 56.2958V51.7467H40.6953V50.6895H45.5809V51.7467H43.7868V56.2958H42.4893Z" fill="white"/>
<path d="M37.6004 56.3919C36.8048 56.3919 36.1828 56.1703 35.7343 55.7272C35.2858 55.284 35.0615 54.6513 35.0615 53.829V50.6895H36.359V53.781C36.359 54.3149 36.4685 54.6993 36.6874 54.9343C36.9063 55.1692 37.2133 55.2867 37.6084 55.2867C38.0035 55.2867 38.3105 55.1692 38.5295 54.9343C38.7484 54.6993 38.8578 54.3149 38.8578 53.781V50.6895H40.1393V53.829C40.1393 54.6513 39.915 55.284 39.4665 55.7272C39.018 56.1703 38.396 56.3919 37.6004 56.3919Z" fill="white"/>
<path d="M28.3584 56.2958L30.8572 50.6895H32.1387L34.6455 56.2958H33.284L31.2337 51.3462H31.7462L29.6879 56.2958H28.3584ZM29.6078 55.0945L29.9522 54.1093H32.8355L33.1879 55.0945H29.6078Z" fill="white"/>
<path d="M19.1775 56.2958V50.6895H20.2507L22.6374 54.6459H22.0688L24.4154 50.6895H25.4806L25.4967 56.2958H24.2793L24.2713 52.5556H24.4955L22.6214 55.7031H22.0367L20.1226 52.5556H20.3949V56.2958H19.1775Z" fill="white"/>
<path d="M13.3899 56.2958V50.6895H15.8166C16.3186 50.6895 16.751 50.7722 17.1141 50.9377C17.4772 51.0979 17.7575 51.3302 17.9551 51.6345C18.1526 51.9389 18.2514 52.302 18.2514 52.7238C18.2514 53.1402 18.1526 53.5006 17.9551 53.805C17.7575 54.1093 17.4772 54.3443 17.1141 54.5098C16.751 54.67 16.3186 54.7501 15.8166 54.7501H14.1107L14.6874 54.1654V56.2958H13.3899ZM14.6874 54.3096L14.1107 53.6929H15.7446C16.145 53.6929 16.444 53.6074 16.6416 53.4366C16.8391 53.2657 16.9379 53.0281 16.9379 52.7238C16.9379 52.4141 16.8391 52.1738 16.6416 52.0029C16.444 51.8321 16.145 51.7467 15.7446 51.7467H14.1107L14.6874 51.13V54.3096Z" fill="white"/>
<path d="M9.91812 56.3921C9.47495 56.3921 9.06648 56.3227 8.69272 56.1839C8.32431 56.0397 8.00127 55.8368 7.72362 55.5752C7.45132 55.3135 7.23774 55.0065 7.0829 54.6541C6.93339 54.3017 6.85864 53.9146 6.85864 53.4928C6.85864 53.071 6.93339 52.6839 7.0829 52.3315C7.23774 51.9791 7.45399 51.6721 7.73163 51.4104C8.00928 51.1488 8.33499 50.9486 8.70874 50.8098C9.0825 50.6656 9.49363 50.5935 9.94214 50.5935C10.4387 50.5935 10.8845 50.6763 11.2797 50.8418C11.6801 51.0073 12.0165 51.2476 12.2888 51.5626L11.4559 52.3315C11.253 52.1179 11.0314 51.9604 10.7911 51.8589C10.5508 51.7522 10.2892 51.6988 10.0062 51.6988C9.73391 51.6988 9.48563 51.7415 9.26137 51.8269C9.03712 51.9123 8.84223 52.0351 8.67671 52.1953C8.51653 52.3555 8.39105 52.5451 8.30028 52.764C8.21485 52.9829 8.17213 53.2258 8.17213 53.4928C8.17213 53.7544 8.21485 53.9947 8.30028 54.2136C8.39105 54.4325 8.51653 54.6247 8.67671 54.7903C8.84223 54.9505 9.03445 55.0733 9.25336 55.1587C9.47762 55.2441 9.72323 55.2868 9.9902 55.2868C10.2465 55.2868 10.4948 55.2468 10.735 55.1667C10.9807 55.0813 11.2183 54.9398 11.4479 54.7422L12.1847 55.6793C11.8803 55.9089 11.5253 56.0851 11.1195 56.2079C10.719 56.3307 10.3186 56.3921 9.91812 56.3921ZM10.9993 55.5111V53.4047H12.1847V55.6793L10.9993 55.5111Z" fill="white"/>
<defs>
<linearGradient id="paint0_linear_3_93008" x1="6.86456" y1="-16.0393" x2="6.86456" y2="40.0991" gradientUnits="userSpaceOnUse">
<stop stop-color="#63B2FF"/>
<stop offset="1" stop-color="#00357A"/>
</linearGradient>
<linearGradient id="paint1_linear_3_93008" x1="17.1155" y1="-16.0397" x2="17.1155" y2="40.0986" gradientUnits="userSpaceOnUse">
<stop stop-color="#63B2FF"/>
<stop offset="1" stop-color="#00357A"/>
</linearGradient>
<linearGradient id="paint2_linear_3_93008" x1="29.1919" y1="-16.0394" x2="29.1919" y2="40.0991" gradientUnits="userSpaceOnUse">
<stop stop-color="#63B2FF"/>
<stop offset="1" stop-color="#00357A"/>
</linearGradient>
<linearGradient id="paint3_linear_3_93008" x1="41.2683" y1="-16.0397" x2="41.2683" y2="40.0986" gradientUnits="userSpaceOnUse">
<stop stop-color="#63B2FF"/>
<stop offset="1" stop-color="#00357A"/>
</linearGradient>
<linearGradient id="paint4_linear_3_93008" x1="51.5188" y1="-16.0397" x2="51.5188" y2="40.0987" gradientUnits="userSpaceOnUse">
<stop stop-color="#63B2FF"/>
<stop offset="1" stop-color="#00357A"/>
</linearGradient>
<linearGradient id="paint5_linear_3_93008" x1="56.7305" y1="1.51755" x2="56.7305" y2="34.2061" gradientUnits="userSpaceOnUse">
<stop stop-color="#63B2FF"/>
<stop offset="1" stop-color="#00357A"/>
</linearGradient>
<linearGradient id="paint6_linear_3_93008" x1="1.65481" y1="1.51755" x2="1.65481" y2="34.2061" gradientUnits="userSpaceOnUse">
<stop stop-color="#63B2FF"/>
<stop offset="1" stop-color="#00357A"/>
</linearGradient>
<linearGradient id="paint7_linear_3_93008" x1="14.6145" y1="10.3592" x2="44.1241" y2="39.8689" gradientUnits="userSpaceOnUse">
<stop stop-color="#63B2FF"/>
<stop offset="1" stop-color="#00357A"/>
</linearGradient>
<linearGradient id="paint8_linear_3_93008" x1="50.6329" y1="-2.53681" x2="50.6329" y2="27.433" gradientUnits="userSpaceOnUse">
<stop stop-color="#FF7A97"/>
<stop offset="1" stop-color="#91262E"/>
</linearGradient>
<linearGradient id="paint9_linear_3_93008" x1="7.80218" y1="-2.53679" x2="7.80218" y2="27.433" gradientUnits="userSpaceOnUse">
<stop stop-color="#FF7A97"/>
<stop offset="1" stop-color="#91262E"/>
</linearGradient>
<linearGradient id="paint10_linear_3_93008" x1="29.1928" y1="-2.53681" x2="29.1928" y2="27.4331" gradientUnits="userSpaceOnUse">
<stop stop-color="#FF7A97"/>
<stop offset="1" stop-color="#91262E"/>
</linearGradient>
<linearGradient id="paint11_linear_3_93008" x1="21.5449" y1="-9.11835" x2="28.3738" y2="22.5748" gradientUnits="userSpaceOnUse">
<stop stop-color="white"/>
<stop offset="1" stop-color="white" stop-opacity="0"/>
</linearGradient>
<linearGradient id="paint12_linear_3_93008" x1="29.1924" y1="20.2153" x2="29.1924" y2="38.088" gradientUnits="userSpaceOnUse">
<stop stop-color="#FF7A97"/>
<stop offset="1" stop-color="#AD2834"/>
</linearGradient>
<linearGradient id="paint13_linear_3_93008" x1="29.1925" y1="20.175" x2="29.1925" y2="34.4037" gradientUnits="userSpaceOnUse">
<stop stop-color="#FF7A97"/>
<stop offset="1" stop-color="#AD2834"/>
</linearGradient>
<linearGradient id="paint14_linear_3_93008" x1="12.6892" y1="41.2027" x2="45.4177" y2="41.2027" gradientUnits="userSpaceOnUse">
<stop stop-color="#6699CC"/>
<stop offset="0.3889" stop-color="#E4F2FF"/>
<stop offset="0.7169" stop-color="#E4F2FF"/>
<stop offset="1" stop-color="#6699CC"/>
</linearGradient>
<linearGradient id="paint15_linear_3_93008" x1="19.5693" y1="41.2025" x2="38.2765" y2="41.2025" gradientUnits="userSpaceOnUse">
<stop stop-color="#7AA4CF"/>
<stop offset="0.5" stop-color="#D9ECFF"/>
<stop offset="1" stop-color="#7AA4CF"/>
</linearGradient>
<linearGradient id="paint16_linear_3_93008" x1="9.90756" y1="68.2741" x2="9.90756" y2="38.2186" gradientUnits="userSpaceOnUse">
<stop stop-color="#6699CC"/>
<stop offset="1" stop-color="#E4F2FF"/>
</linearGradient>
<linearGradient id="paint17_linear_3_93008" x1="48.4779" y1="68.274" x2="48.4779" y2="38.2186" gradientUnits="userSpaceOnUse">
<stop stop-color="#6699CC"/>
<stop offset="1" stop-color="#E4F2FF"/>
</linearGradient>
</defs>
</svg>
